# 3ds Max Wavefront OBJ Exporter v0.97b - (c)2007 guruware
# File Created: 19.08.2014 02:29:10

#
# object m_kineticStatue_cube
#

v  -9.2553 3.3768 -12.2073
v  -9.7613 4.2261 -12.8741
v  -8.8101 4.2281 -13.5933
v  -8.3042 3.3788 -12.9265
v  -8.7442 4.2139 -11.5290
v  -7.7930 4.2158 -12.2482
v  -8.2990 5.0651 -12.9151
v  -9.2501 5.0632 -12.1959
# 8 vertices

vn -0.0000 -1.0000 0.0000
vn 0.0000 1.0000 -0.0000
vn 0.0000 0.0000 1.0000
vn 1.0000 0.0000 0.0000
vn -0.0000 -0.0000 -1.0000
vn -1.0000 -0.0000 -0.0000
# 6 vertex normals

vt 1.0000 0.0000 0.0000
vt 1.0000 1.0000 0.0000
vt 0.0000 1.0000 0.0000
vt 0.0000 0.0000 0.0000
# 4 texture coords

g m_kineticStatue_cube
s 2
f 1/1/1 2/2/1 3/3/1 4/4/1 
s 4
f 5/4/2 6/1/2 7/2/2 8/3/2 
s 8
f 1/4/3 4/1/3 6/2/3 5/3/3 
s 16
f 4/4/4 3/1/4 7/2/4 6/3/4 
s 32
f 3/4/5 2/1/5 8/2/5 7/3/5 
s 64
f 2/4/6 1/1/6 5/2/6 8/3/6 
# 6 polygons

#
# object m_kineticStatue_shards
#

v  -11.9224 4.5345 -20.3073
v  -11.4826 2.2759 -20.3073
v  -10.2470 3.8379 -18.7109
v  -5.6871 4.8224 -20.3083
v  -6.9968 7.0698 -20.3083
v  -7.6539 5.2543 -18.6478
v  -8.4300 2.3723 -18.0880
v  -7.5356 3.2004 -19.0710
v  -7.9703 3.5439 -16.9142
v  -12.0287 5.4095 -20.3101
v  -10.3523 5.1288 -18.7834
v  -10.0531 7.1900 -20.3101
v  -9.9681 4.2280 -16.2336
v  -9.2156 3.3225 -16.4602
v  -9.2787 4.1345 -15.1223
v  -7.2668 4.8332 -18.8586
v  -7.9218 6.1639 -17.7390
v  -7.7473 5.0400 -16.3011
v  -8.0786 3.4037 -16.1431
v  -7.5514 4.0278 -17.2232
v  -7.9552 4.4522 -15.2471
v  -9.9227 6.2101 -18.5080
v  -10.5830 4.5680 -18.0793
v  -9.6985 4.6755 -16.4479
v  -9.8427 7.1592 -20.3101
v  -8.7764 5.7214 -18.5348
v  -7.1867 7.1722 -20.3101
v  -7.4840 1.8106 -20.3073
v  -5.6206 4.1132 -20.3073
v  -7.6212 4.0436 -18.7109
v  -9.4173 2.6142 -17.4875
v  -10.5640 4.1589 -17.4774
v  -8.9800 2.9495 -19.1137
v  -10.9428 2.0630 -20.3073
v  -8.0685 1.5048 -20.3073
v  -8.9770 3.2886 -18.7109
v  -8.5604 4.0060 -16.2979
v  -9.2115 4.2407 -16.2673
v  -9.5236 4.6705 -18.0978
v  -8.3338 5.3128 -17.5437
v  -9.0735 3.8613 -17.7883
v  -8.7467 3.5000 -18.2054
v  -9.3854 3.0153 -20.3073
v  -7.4625 3.7989 -20.3073
v  -8.1640 4.6938 -16.3078
v  -9.1174 4.4842 -16.6302
v  -8.9355 5.1755 -15.8695
v  -8.8688 4.2086 -13.6567
v  -9.4024 3.9743 -14.8089
v  -8.5846 3.8997 -14.6342
v  -8.9741 4.2783 -14.5684
v  -8.5576 4.4203 -15.7708
v  -7.4437 5.2575 -20.3083
v  -8.5147 6.0083 -20.3101
v  -10.2826 5.3491 -20.3101
v  -10.5283 3.8191 -20.3073
# 56 vertices

vn -0.7128 0.6875 0.1388
vn 0.6446 0.6658 -0.3757
vn 0.7909 0.2484 0.5593
vn -0.5047 0.6571 -0.5600
vn -0.6706 0.3615 0.6477
vn 0.9310 0.1479 -0.3338
vn 0.9101 0.2560 0.3259
vn -0.8051 0.4082 -0.4303
vn -0.0038 0.6307 -0.7760
vn 0.5645 0.6875 0.4568
vn -0.7615 -0.3209 0.5632
vn -0.1356 0.7030 0.6982
vn -0.5402 -0.6029 0.5871
vn -0.2514 -0.2520 -0.9345
vn -0.7024 0.5798 0.4129
vn -0.0470 -0.9775 -0.2056
vn 0.9982 0.0570 0.0165
vn -0.0126 0.0916 -0.9957
vn 0.0078 -0.9668 0.2555
vn 0.0965 0.0132 0.9952
vn 0.9563 0.1005 -0.2746
vn -0.7242 -0.6602 -0.1991
vn -0.7537 0.4590 -0.4703
vn -0.4143 -0.0042 0.9101
vn 0.2331 0.9580 -0.1668
vn 0.0470 -0.5639 -0.8245
vn 0.9539 0.2129 0.2116
vn -0.8398 0.5112 0.1826
vn -0.6032 -0.7579 0.2483
vn 0.1529 -0.1253 -0.9803
vn -0.0000 -1.0000 0.0000
vn 0.7209 -0.2920 -0.6285
vn -0.5216 -0.0126 -0.8531
vn -0.1659 -0.1655 -0.9722
vn -0.9949 -0.1006 -0.0108
vn 0.0694 -0.6800 -0.7299
vn -0.1427 0.2603 0.9549
vn -0.6216 0.1309 -0.7723
vn 0.2263 -0.8935 -0.3879
vn 0.6947 -0.0252 -0.7189
vn 0.2897 -0.2572 0.9219
vn -0.8005 0.4965 0.3357
vn 0.6289 0.6656 -0.4017
vn 0.0000 -1.0000 0.0000
vn -0.9637 -0.1216 -0.2377
vn -0.2403 -0.0323 0.9702
vn -0.6398 -0.2136 0.7383
vn 0.6589 -0.0244 0.7518
vn -0.0342 -0.1443 0.9889
vn 0.9919 0.0274 0.1237
vn 0.4547 -0.0906 -0.8860
vn 0.8419 -0.1422 0.5206
# 52 vertex normals

vt 0.0000 0.0000 0.0000
vt 0.4550 0.4501 0.0000
vt 0.0000 0.4501 0.0000
vt 1.0000 0.5499 0.0000
vt 0.5450 1.0000 0.0000
vt 0.5450 0.5499 0.0000
vt 0.5450 0.2253 0.0000
vt 0.8458 0.2975 0.0000
vt 0.6709 0.4501 0.0000
vt 0.0000 1.0000 0.0000
vt 0.0000 0.5499 0.0000
vt 0.4550 0.5499 0.0000
vt 0.4550 0.0000 0.0000
vt 1.0000 1.0000 0.0000
vt 0.5450 0.0000 0.0000
vt 1.0000 0.0000 0.0000
vt 0.5450 0.4501 0.0000
vt 0.4550 1.0000 0.0000
vt 0.6967 0.1500 0.0000
vt 0.1517 0.1500 0.0000
vt 0.1517 0.8500 0.0000
vt 0.6967 0.8500 0.0000
vt 0.6872 0.3243 0.0000
vt 0.1137 0.3376 0.0000
vt 0.6588 0.6624 0.0000
vt 0.1137 0.6624 0.0000
# 26 texture coords

g m_kineticStatue_shards
s 4
f 9/5/7 10/6/7 11/7/7 
f 12/8/8 13/9/8 14/10/8 
f 15/11/9 16/12/9 17/13/9 
f 18/14/10 19/15/10 20/16/10 
f 21/5/11 22/17/11 23/7/11 
f 24/18/12 25/9/12 26/10/12 
f 27/19/13 28/20/13 29/21/13 
f 30/22/14 31/14/14 32/15/14 
f 33/14/15 34/15/15 35/16/15 
f 36/5/16 37/6/16 38/7/16 
f 39/5/17 40/17/17 41/7/17 
f 42/5/18 43/6/18 44/7/18 
s off
f 28/20/19 27/19/19 45/23/19 
f 29/21/20 28/20/20 45/23/20 
f 27/19/21 29/21/21 45/23/21 
f 22/17/22 21/5/22 46/24/22 
f 23/7/23 22/17/23 46/24/23 
f 21/5/24 23/7/24 46/24/24 
f 31/14/25 30/22/25 47/25/25 
f 32/15/26 31/14/26 47/25/26 
f 30/22/27 32/15/27 47/25/27 
f 25/9/28 24/18/28 48/26/28 
f 26/10/29 25/9/29 48/26/29 
f 24/18/30 26/10/30 48/26/30 
f 40/17/31 39/5/31 49/24/31 
f 41/7/32 40/17/32 49/24/32 
f 39/5/33 41/7/33 49/24/33 
f 15/11/34 17/13/34 50/27/34 
f 16/12/35 15/11/35 50/27/35 
f 17/13/36 16/12/36 50/27/36 
f 43/6/37 42/5/37 51/28/37 
f 44/7/38 43/6/38 51/28/38 
f 42/5/39 44/7/39 51/28/39 
f 37/6/37 36/5/37 52/28/37 
f 38/7/40 37/6/40 52/28/40 
f 36/5/41 38/7/41 52/28/41 
s 4
f 53/5/42 54/17/42 55/7/42 
f 56/19/43 57/20/43 58/21/43 
s off
f 57/20/44 56/19/44 59/23/44 
f 58/21/45 57/20/45 59/23/45 
f 56/19/46 58/21/46 59/23/46 
f 54/17/47 53/5/47 60/24/47 
f 55/7/48 54/17/48 60/24/48 
f 53/5/49 55/7/49 60/24/49 
f 13/9/50 12/8/50 61/29/50 
f 14/10/51 13/9/51 61/29/51 
f 12/8/52 14/10/52 61/29/52 
f 34/15/53 33/14/53 62/30/53 
f 35/16/54 34/15/54 62/30/54 
f 33/14/50 35/16/50 62/30/50 
f 19/15/55 18/14/55 63/30/55 
f 20/16/56 19/15/56 63/30/56 
f 18/14/37 20/16/37 63/30/37 
f 10/6/50 9/5/50 64/28/50 
f 9/5/57 11/7/57 64/28/57 
f 11/7/58 10/6/58 64/28/58 
# 0 polygons - 56 triangles

#
# object m_kineticStatue_supports
#

v  -8.7224 1.1797 -12.6099
v  -8.7718 1.1797 -12.6592
v  -8.7718 4.6336 -12.6592
v  -8.7224 4.6336 -12.6099
v  -8.8211 1.1797 -12.6099
v  -8.8211 4.6336 -12.6099
v  -8.7718 1.1797 -12.5605
v  -8.7718 4.6336 -12.5605
v  -9.0237 4.1200 -14.4603
v  -9.0731 4.1200 -14.5097
v  -9.0731 7.7741 -14.5097
v  -9.0237 7.7741 -14.4603
v  -9.1225 4.1200 -14.4603
v  -9.1225 7.7741 -14.4603
v  -9.0731 4.1200 -14.4109
v  -9.0731 7.7741 -14.4109
v  -8.8341 4.7906 -16.1334
v  -8.8835 4.7906 -16.1828
v  -8.8835 7.6954 -16.1828
v  -8.8341 7.6954 -16.1334
v  -8.9329 4.7906 -16.1334
v  -8.9329 7.6954 -16.1334
v  -8.8835 4.7906 -16.0841
v  -8.8835 7.6954 -16.0841
v  -9.9718 5.3132 -17.9046
v  -10.0204 5.3046 -17.9539
v  -10.4386 7.6767 -17.9539
v  -10.3900 7.6853 -17.9046
v  -10.0690 5.2960 -17.9046
v  -10.4873 7.6681 -17.9046
v  -10.0204 5.3046 -17.8552
v  -10.4386 7.6767 -17.8552
v  -7.6953 5.3667 -17.7667
v  -7.7430 5.3795 -17.8160
v  -7.1401 7.6293 -17.8160
v  -7.0924 7.6165 -17.7667
v  -7.7907 5.3923 -17.7667
v  -7.1878 7.6421 -17.7667
v  -7.7430 5.3795 -17.7173
v  -7.1401 7.6293 -17.7173
v  -7.5507 1.2614 -18.1633
v  -7.5984 1.2487 -18.2127
v  -8.0994 3.1185 -18.2127
v  -8.0517 3.1312 -18.1633
v  -7.6460 1.2359 -18.1633
v  -8.1471 3.1057 -18.1633
v  -7.5984 1.2487 -18.1140
v  -8.0994 3.1185 -18.1140
v  -7.5033 1.2716 -16.2077
v  -7.5519 1.2630 -16.2570
v  -7.9878 3.7348 -16.2570
v  -7.9392 3.7434 -16.2077
v  -7.6006 1.2545 -16.2077
v  -8.0364 3.7263 -16.2077
v  -7.5519 1.2630 -16.1583
v  -7.9878 3.7348 -16.1583
v  -9.9752 1.2359 -17.8156
v  -10.0229 1.2487 -17.8650
v  -9.5219 3.1185 -17.8650
v  -9.4742 3.1057 -17.8156
v  -10.0706 1.2614 -17.8156
v  -9.5696 3.1312 -17.8156
v  -10.0229 1.2487 -17.7662
v  -9.5219 3.1185 -17.7662
v  -9.8880 1.2500 -16.0685
v  -9.9366 1.2586 -16.1179
v  -9.5008 3.7304 -16.1179
v  -9.4522 3.7219 -16.0685
v  -9.9853 1.2672 -16.0685
v  -9.5494 3.7390 -16.0685
v  -9.9366 1.2586 -16.0192
v  -9.5008 3.7304 -16.0192
# 72 vertices

vn 1.0000 0.0000 0.0000
vn 0.0000 0.0000 -1.0000
vn -0.0000 0.0000 -1.0000
vn 1.0000 0.0000 -0.0000
vn -1.0000 0.0000 -0.0000
vn -1.0000 0.0000 0.0000
vn -0.0000 0.0000 1.0000
vn 0.0000 0.0000 1.0000
vn 0.9848 0.1736 -0.0000
vn -0.9848 -0.1736 -0.0000
vn 0.9659 -0.2588 -0.0000
vn 0.0000 -0.0000 -1.0000
vn -0.9659 0.2588 0.0000
vn -0.9659 0.2588 -0.0000
vn 0.0000 -0.0000 1.0000
vn 0.9659 0.2588 -0.0000
vn -0.0000 -0.0000 -1.0000
vn -0.9659 -0.2588 -0.0000
vn -0.0000 -0.0000 1.0000
vn 0.9848 0.1736 0.0000
vn 0.9659 -0.2588 0.0000
vn 0.9848 -0.1736 -0.0000
vn 0.9848 -0.1736 0.0000
vn -0.9848 0.1736 0.0000
vn -0.9848 0.1736 -0.0000
# 25 vertex normals

vt 0.7500 0.0000 1.0000
vt 1.0000 0.0000 1.0000
vt 1.0000 1.0000 1.0000
vt 0.7500 1.0000 1.0000
vt 0.0000 0.0000 1.0000
vt 0.2500 0.0000 1.0000
vt 0.2500 1.0000 1.0000
vt 0.0000 1.0000 1.0000
vt 0.5000 0.0000 1.0000
vt 0.5000 1.0000 1.0000
# 10 texture coords

g m_kineticStatue_supports
s 8
f 65/31/59 66/32/60 67/33/61 68/34/62 
f 66/35/60 69/36/63 70/37/64 67/38/61 
f 69/36/63 71/39/65 72/40/66 70/37/64 
f 71/39/65 65/31/59 68/34/62 72/40/66 
f 73/31/59 74/32/60 75/33/61 76/34/62 
f 74/35/60 77/36/63 78/37/64 75/38/61 
f 77/36/63 79/39/65 80/40/66 78/37/64 
f 79/39/65 73/31/59 76/34/62 80/40/66 
f 81/31/62 82/32/61 83/33/60 84/34/62 
f 82/35/61 85/36/63 86/37/63 83/38/60 
f 85/36/63 87/39/66 88/40/65 86/37/63 
f 87/39/66 81/31/62 84/34/62 88/40/65 
f 89/31/67 90/32/60 91/33/60 92/34/67 
f 90/35/60 93/36/68 94/37/68 91/38/60 
f 93/36/68 95/39/66 96/40/66 94/37/68 
f 95/39/66 89/31/67 92/34/67 96/40/66 
f 97/31/69 98/32/61 99/33/70 100/34/69 
f 98/35/61 101/36/71 102/37/72 99/38/70 
f 101/36/71 103/39/65 104/40/73 102/37/72 
f 103/39/65 97/31/69 100/34/69 104/40/73 
f 105/31/74 106/32/60 107/33/75 108/34/74 
f 106/35/60 109/36/76 110/37/76 107/38/75 
f 109/36/76 111/39/66 112/40/77 110/37/76 
f 111/39/66 105/31/74 108/34/74 112/40/77 
f 113/31/67 114/32/75 115/33/75 116/34/78 
f 114/35/75 117/36/68 118/37/68 115/38/75 
f 117/36/68 119/39/66 120/40/77 118/37/68 
f 119/39/66 113/31/67 116/34/78 120/40/77 
f 121/31/79 122/32/60 123/33/70 124/34/79 
f 122/35/60 125/36/71 126/37/71 123/38/70 
f 125/36/71 127/39/66 128/40/73 126/37/71 
f 127/39/66 121/31/79 124/34/79 128/40/73 
f 129/31/80 130/32/61 131/33/70 132/34/81 
f 130/35/61 133/36/82 134/37/83 131/38/70 
f 133/36/82 135/39/66 136/40/73 134/37/83 
f 135/39/66 129/31/80 132/34/81 136/40/73 
# 36 polygons

