# 3ds Max Wavefront OBJ Exporter v0.97b - (c)2007 guruware
# File Created: 17.08.2014 04:40:48

#
# object m_runnerLight
#

v  -0.0134 0.0000 0.0566
v  -0.0130 0.0200 0.0406
v  -0.0222 0.0200 0.0267
v  -0.0323 0.0000 0.0326
v  0.0323 0.0000 -0.0301
v  0.0222 0.0200 -0.0253
v  0.0222 0.0200 0.0267
v  0.0323 0.0000 0.0326
v  0.0134 0.0000 0.0566
v  0.0130 0.0200 0.0406
v  -0.0111 0.0000 -0.0827
v  -0.0323 0.0000 -0.0301
v  -0.0111 0.0200 -0.0698
v  0.0111 0.0368 -0.0477
v  0.0111 0.0200 -0.0698
v  -0.0222 0.0200 -0.0253
v  0.0111 0.0000 -0.0827
v  -0.0111 0.0368 -0.0477
# 18 vertices

vn -0.3129 0.6058 0.7315
vn -0.4778 0.5526 0.6828
vn -0.8416 0.4769 0.2537
vn -0.8136 0.4990 0.2985
vn 0.9015 0.4133 -0.1285
vn 0.8868 0.4596 -0.0480
vn 0.8416 0.4769 0.2537
vn 0.8136 0.4990 0.2985
vn 0.3129 0.6058 0.7315
vn 0.4778 0.5526 0.6828
vn -0.4214 0.4922 -0.7617
vn -0.9015 0.4133 -0.1285
vn -0.5030 0.5829 -0.6381
vn 0.5571 0.6802 -0.4763
vn 0.5030 0.5829 -0.6381
vn -0.8868 0.4596 -0.0480
vn 0.0000 1.0000 -0.0000
vn -0.0000 0.9621 0.2726
vn 0.4214 0.4922 -0.7617
vn -0.5571 0.6802 -0.4763
vn -0.0000 0.7999 0.6002
# 21 vertex normals

vt 0.3528 -0.1783 0.0000
vt 0.3939 0.0416 0.0000
vt 0.2983 0.1490 0.0000
vt 0.1048 0.0530 0.0000
vt 0.8952 0.6613 0.0000
vt 0.7017 0.5962 0.0000
vt 0.7017 0.1490 0.0000
vt 0.8952 0.0530 0.0000
vt 0.6472 -0.1783 0.0000
vt 0.6061 0.0416 0.0000
vt 0.3939 1.1754 0.0000
vt 0.1048 0.6613 0.0000
vt 0.3939 0.9956 0.0000
vt 0.6061 0.7941 0.0000
vt 0.6061 0.9956 0.0000
vt 0.2983 0.5962 0.0000
vt 0.6061 1.1754 0.0000
vt 0.3939 0.7941 0.0000
# 18 texture coords

g m_runnerLight
s 1
f 1/1/1 2/2/2 3/3/3 4/4/4 
f 5/5/5 6/6/6 7/7/7 8/8/8 
f 9/9/9 8/8/8 7/7/7 10/10/10 
f 11/11/11 12/12/12 13/13/13 
f 14/14/14 5/5/5 15/15/15 
f 12/12/12 4/4/4 3/3/3 16/16/16 
s 2
f 3/3/17 7/7/17 6/6/18 16/16/18 
f 3/3/17 2/2/17 10/10/17 7/7/17 
s 1
f 1/1/1 9/9/9 10/10/10 2/2/2 
f 17/17/19 11/11/11 13/13/13 15/15/15 
f 15/15/15 13/13/13 18/18/20 14/14/14 
f 13/13/13 12/12/12 18/18/20 
s 2
f 6/6/18 14/14/21 18/18/21 16/16/18 
s 1
f 5/5/5 17/17/19 15/15/15 
f 12/12/12 16/16/16 18/18/20 
f 14/14/14 6/6/6 5/5/5 
# 10 polygons - 6 triangles

#
# object m_runnerLight_bulb
#

v  -0.0108 0.0354 0.0239
v  0.0108 0.0354 0.0239
v  0.0099 0.0354 -0.0475
v  -0.0099 0.0354 -0.0475
v  -0.0117 0.0187 0.0401
v  0.0117 0.0187 0.0401
v  0.0206 0.0187 0.0263
v  0.0206 0.0187 -0.0257
v  -0.0206 0.0187 -0.0257
v  -0.0206 0.0187 0.0263
# 10 vertices

vn -0.4324 0.8414 0.3242
vn 0.4348 0.8410 0.3219
vn 0.3003 0.9538 -0.0013
vn -0.2997 0.9540 -0.0037
vn -0.3070 0.6709 0.6750
vn 0.3070 0.6709 0.6750
vn 0.8208 0.5208 0.2345
vn 0.8415 0.5403 0.0000
vn -0.8499 0.5269 -0.0089
vn -0.8216 0.5176 0.2389
# 10 vertex normals

vt 0.8182 0.7920 0.0000
vt 0.8182 0.7583 0.0000
vt 0.9373 0.7583 0.0000
vt 0.9373 0.7920 0.0000
vt 0.7813 0.7981 0.0000
vt 0.7813 0.7522 0.0000
vt 0.8074 0.7276 0.0000
vt 0.8981 0.7276 0.0000
vt 0.8981 0.8227 0.0000
vt 0.8074 0.8227 0.0000
# 10 texture coords

g m_runnerLight_bulb
s 1
f 19/19/22 20/20/23 21/21/24 22/22/25 
f 23/23/26 24/24/27 20/20/23 19/19/22 
f 20/20/23 24/24/27 25/25/28 
f 21/21/24 20/20/23 25/25/28 26/26/29 
f 19/19/22 22/22/25 27/27/30 28/28/31 
f 23/23/26 19/19/22 28/28/31 
# 4 polygons - 2 triangles

