# 3ds Max Wavefront OBJ Exporter v0.97b - (c)2007 guruware
# File Created: 15.08.2014 23:29:59

#
# object safetyLights_rods
#

v  -6.6178 0.0000 -14.9911
v  -5.2840 0.0000 -14.9911
v  -5.2840 33.6420 -14.9911
v  -6.6178 33.6420 -14.9911
v  -5.2840 0.0000 -16.3249
v  -5.2840 33.6420 -16.3249
v  -6.6178 0.0000 -16.3249
v  -6.6178 33.6420 -16.3249
v  -6.9950 33.8742 -14.6139
v  -4.9068 33.8742 -14.6139
v  -4.9068 34.8665 -14.6139
v  -6.9950 34.8665 -14.6139
v  -4.9068 33.8742 -16.7022
v  -4.9068 34.8665 -16.7022
v  -6.9950 33.8742 -16.7022
v  -6.9950 34.8665 -16.7022
v  -5.1292 35.0718 -14.8363
v  -6.7726 35.0718 -14.8363
v  -6.7726 35.0718 -16.4798
v  -5.1292 35.0718 -16.4798
v  -6.6178 0.0000 -3.4165
v  -5.2840 0.0000 -3.4165
v  -5.2840 19.7437 -3.4165
v  -6.6178 19.7437 -3.4165
v  -5.2840 0.0000 -4.7502
v  -5.2840 19.7437 -4.7502
v  -6.6178 0.0000 -4.7502
v  -6.6178 19.7437 -4.7502
v  -6.9950 19.9758 -3.0392
v  -4.9068 19.9758 -3.0392
v  -4.9068 20.9682 -3.0392
v  -6.9950 20.9682 -3.0392
v  -4.9068 19.9758 -5.1275
v  -4.9068 20.9682 -5.1275
v  -6.9950 19.9758 -5.1275
v  -6.9950 20.9682 -5.1275
v  -5.1292 21.1735 -3.2616
v  -6.7726 21.1735 -3.2616
v  -6.7726 21.1735 -4.9051
v  -5.1292 21.1735 -4.9051
# 40 vertices

vn -0.7071 0.0000 0.7071
vn 0.7071 0.0000 0.7071
vn 0.7071 0.0000 -0.7071
vn -0.7071 0.0000 -0.7071
vn -0.6287 -0.4578 0.6287
vn 0.6287 -0.4578 0.6287
vn 0.6469 0.4038 0.6469
vn -0.6469 0.4038 0.6469
vn 0.6287 -0.4578 -0.6287
vn 0.6469 0.4038 -0.6469
vn -0.6287 -0.4578 -0.6287
vn -0.6469 0.4038 -0.6469
vn -0.2821 -0.9170 0.2821
vn 0.2821 -0.9170 0.2821
vn 0.2821 -0.9170 -0.2821
vn -0.2821 -0.9170 -0.2821
vn 0.3865 0.8374 0.3865
vn -0.3865 0.8374 0.3865
vn -0.3865 0.8374 -0.3865
vn 0.3865 0.8374 -0.3865
# 20 vertex normals

vt 1.1522 -2.3138 0.4516
vt 1.2816 -2.3138 0.4516
vt 1.2816 -0.0999 0.4516
vt 1.1522 -0.0999 0.4516
vt 1.4110 -2.3138 0.4516
vt 1.4110 -0.0999 0.4516
vt 1.5404 -2.3138 0.4516
vt 1.5404 -0.0999 0.4516
vt 1.6699 -2.3138 0.4516
vt 1.6699 -0.0999 0.4516
vt 1.1522 -0.0834 0.7071
vt 1.2816 -0.0834 0.7071
vt 1.2816 -0.0125 0.7071
vt 1.1522 -0.0125 0.7071
vt 1.4110 -0.0834 0.7071
vt 1.4110 -0.0125 0.7071
vt 1.5404 -0.0834 0.7071
vt 1.5404 -0.0125 0.7071
vt 1.6699 -0.0834 0.7071
vt 1.6699 -0.0125 0.7071
vt 1.2816 0.0022 0.5565
vt 1.1522 0.0022 0.5565
vt 1.6699 0.0022 0.5565
vt 1.5404 0.0022 0.5565
vt 1.4110 0.0022 0.5565
vt 0.5369 -1.5096 0.4516
vt 0.6663 -1.5096 0.4516
vt 0.6663 -0.0999 0.4516
vt 0.5369 -0.0999 0.4516
vt 0.7957 -1.5096 0.4516
vt 0.7957 -0.0999 0.4516
vt 0.9251 -1.5096 0.4516
vt 0.9251 -0.0999 0.4516
vt 1.0545 -1.5096 0.4516
vt 1.0545 -0.0999 0.4516
vt 0.5369 -0.0834 0.7071
vt 0.6663 -0.0834 0.7071
vt 0.6663 -0.0125 0.7071
vt 0.5369 -0.0125 0.7071
vt 0.7957 -0.0834 0.7071
vt 0.7957 -0.0125 0.7071
vt 0.9251 -0.0834 0.7071
vt 0.9251 -0.0125 0.7071
vt 1.0545 -0.0834 0.7071
vt 1.0545 -0.0125 0.7071
vt 0.6663 0.0022 0.5565
vt 0.5369 0.0022 0.5565
vt 1.0545 0.0022 0.5565
vt 0.9251 0.0022 0.5565
vt 0.7957 0.0022 0.5565
# 50 texture coords

g safetyLights_rods
s 8
f 1/1/1 2/2/2 3/3/2 4/4/1 
f 2/2/2 5/5/3 6/6/3 3/3/2 
f 5/5/3 7/7/4 8/8/4 6/6/3 
f 7/7/4 1/9/1 4/10/1 8/8/4 
s 32
f 9/11/5 10/12/6 11/13/7 12/14/8 
f 10/12/6 13/15/9 14/16/10 11/13/7 
f 13/15/9 15/17/11 16/18/12 14/16/10 
f 15/17/11 9/19/5 12/20/8 16/18/12 
f 4/4/13 3/3/14 10/12/6 9/11/5 
f 3/3/14 6/6/15 13/15/9 10/12/6 
f 6/6/15 8/8/16 15/17/11 13/15/9 
f 8/8/16 4/10/13 9/19/5 15/17/11 
f 17/21/17 18/22/18 12/14/8 11/13/7 
f 18/23/18 19/24/19 16/18/12 12/20/8 
f 19/24/19 20/25/20 14/16/10 16/18/12 
f 20/25/20 17/21/17 11/13/7 14/16/10 
s 8
f 21/26/1 22/27/2 23/28/2 24/29/1 
f 22/27/2 25/30/3 26/31/3 23/28/2 
f 25/30/3 27/32/4 28/33/4 26/31/3 
f 27/32/4 21/34/1 24/35/1 28/33/4 
s 32
f 29/36/5 30/37/6 31/38/7 32/39/8 
f 30/37/6 33/40/9 34/41/10 31/38/7 
f 33/40/9 35/42/11 36/43/12 34/41/10 
f 35/42/11 29/44/5 32/45/8 36/43/12 
f 24/29/13 23/28/14 30/37/6 29/36/5 
f 23/28/14 26/31/15 33/40/9 30/37/6 
f 26/31/15 28/33/16 35/42/11 33/40/9 
f 28/33/16 24/35/13 29/44/5 35/42/11 
f 37/46/17 38/47/18 32/39/8 31/38/7 
f 38/48/18 39/49/19 36/43/12 32/45/8 
f 39/49/19 40/50/20 34/41/10 36/43/12 
f 40/50/20 37/46/17 31/38/7 34/41/10 
# 32 polygons

#
# object safetyLights
#

v  -6.4962 36.8673 -15.1127
v  -5.4055 36.8673 -15.1127
v  -5.4055 36.8673 -16.2034
v  -6.4962 36.8673 -16.2034
v  -6.7726 35.0718 -14.8363
v  -5.1292 35.0718 -14.8363
v  -5.1292 35.0718 -16.4798
v  -6.7726 35.0718 -16.4798
v  -6.4962 22.9689 -3.5380
v  -5.4055 22.9689 -3.5380
v  -5.4055 22.9689 -4.6287
v  -6.4962 22.9689 -4.6287
v  -6.7726 21.1735 -3.2616
v  -5.1292 21.1735 -3.2616
v  -5.1292 21.1735 -4.9051
v  -6.7726 21.1735 -4.9051
# 16 vertices

vn -0.5334 0.6565 0.5334
vn 0.5334 0.6565 0.5334
vn 0.5334 0.6565 -0.5334
vn -0.5334 0.6565 -0.5334
vn -0.6909 0.2127 0.6909
vn 0.6909 0.2127 0.6909
vn 0.6909 0.2127 -0.6909
vn -0.6909 0.2127 -0.6909
# 8 vertex normals

vt 0.9578 0.6455 0.3693
vt 0.9578 0.7329 0.3693
vt 0.8704 0.7329 0.3693
vt 0.8704 0.6455 0.3693
vt 0.6081 0.4821 0.5565
vt 0.6955 0.4821 0.5565
vt 0.6955 0.6455 0.3693
vt 0.6081 0.6455 0.3693
vt 0.7830 0.4821 0.5565
vt 0.7830 0.6455 0.3693
vt 0.8704 0.4821 0.5565
vt 0.9578 0.4821 0.5565
vt 0.3968 0.6455 0.3693
vt 0.3968 0.7329 0.3693
vt 0.3094 0.7329 0.3693
vt 0.3094 0.6455 0.3693
vt 0.0471 0.4821 0.5565
vt 0.1345 0.4821 0.5565
vt 0.1345 0.6455 0.3693
vt 0.0471 0.6455 0.3693
vt 0.2219 0.4821 0.5565
vt 0.2219 0.6455 0.3693
vt 0.3094 0.4821 0.5565
vt 0.3968 0.4821 0.5565
# 24 texture coords

g safetyLights
s 1
f 41/51/21 42/52/22 43/53/23 44/54/24 
f 45/55/25 46/56/26 42/57/22 41/58/21 
f 46/56/26 47/59/27 43/60/23 42/57/22 
f 47/59/27 48/61/28 44/54/24 43/60/23 
f 48/61/28 45/62/25 41/51/21 44/54/24 
f 49/63/21 50/64/22 51/65/23 52/66/24 
f 53/67/25 54/68/26 50/69/22 49/70/21 
f 54/68/26 55/71/27 51/72/23 50/69/22 
f 55/71/27 56/73/28 52/66/24 51/72/23 
f 56/73/28 53/74/25 49/63/21 52/66/24 
# 10 polygons

