# 3ds Max Wavefront OBJ Exporter v0.97b - (c)2007 guruware
# File Created: 18.08.2014 16:30:47

#
# object m_VentCover
#

v  -0.5075 0.0000 0.3325
v  0.5075 0.0000 0.3325
v  0.5075 0.0270 0.3325
v  -0.5075 0.0270 0.3325
v  0.5075 0.0000 -0.3325
v  0.5075 0.0270 -0.3325
v  -0.5075 0.0000 -0.3325
v  -0.5075 0.0270 -0.3325
v  0.4462 0.0270 0.2713
v  -0.4462 0.0270 0.2713
v  0.4462 0.0270 -0.2713
v  -0.4462 0.0270 -0.2713
v  0.4462 0.0035 0.2713
v  -0.4462 0.0035 0.2713
v  0.4462 0.0035 -0.2713
v  -0.4462 0.0035 -0.2713
v  -0.4480 0.0252 0.2568
v  0.4480 0.0252 0.2568
v  0.4480 0.0033 0.2018
v  -0.4480 0.0033 0.2018
v  -0.4480 0.0211 0.2679
v  0.4480 0.0211 0.2679
v  -0.4480 0.0252 0.1892
v  0.4480 0.0252 0.1892
v  0.4480 0.0033 0.1342
v  -0.4480 0.0033 0.1342
v  -0.4480 0.0211 0.2004
v  0.4480 0.0211 0.2004
v  -0.4480 0.0252 0.1217
v  0.4480 0.0252 0.1217
v  0.4480 0.0033 0.0667
v  -0.4480 0.0033 0.0667
v  -0.4480 0.0211 0.1328
v  0.4480 0.0211 0.1328
v  -0.4480 0.0252 0.0541
v  0.4480 0.0252 0.0541
v  0.4480 0.0033 -0.0009
v  -0.4480 0.0033 -0.0009
v  -0.4480 0.0211 0.0652
v  0.4480 0.0211 0.0652
v  -0.4480 0.0252 -0.0135
v  0.4480 0.0252 -0.0135
v  0.4480 0.0033 -0.0685
v  -0.4480 0.0033 -0.0685
v  -0.4480 0.0211 -0.0023
v  0.4480 0.0211 -0.0023
v  -0.4480 0.0252 -0.0810
v  0.4480 0.0252 -0.0810
v  0.4480 0.0033 -0.1360
v  -0.4480 0.0033 -0.1360
v  -0.4480 0.0211 -0.0699
v  0.4480 0.0211 -0.0699
v  -0.4480 0.0252 -0.1486
v  0.4480 0.0252 -0.1486
v  0.4480 0.0033 -0.2036
v  -0.4480 0.0033 -0.2036
v  -0.4480 0.0211 -0.1375
v  0.4480 0.0211 -0.1375
v  -0.4480 0.0252 -0.2162
v  0.4480 0.0252 -0.2162
v  0.4480 0.0033 -0.2711
v  -0.4480 0.0033 -0.2711
v  -0.4480 0.0211 -0.2050
v  0.4480 0.0211 -0.2050
# 64 vertices

vn -0.7071 0.0000 0.7071
vn 0.7071 0.0000 0.7071
vn 0.5774 0.5774 0.5774
vn -0.5774 0.5774 0.5774
vn 0.7071 0.0000 -0.7071
vn 0.5774 0.5774 -0.5774
vn -0.7071 0.0000 -0.7071
vn -0.5774 0.5774 -0.5774
vn 0.0000 1.0000 -0.0000
vn 0.0000 0.9999 -0.0130
vn 0.0000 0.9292 -0.3695
vn 0.0000 0.9385 0.3453
# 12 vertex normals

vt 0.0169 0.3359 0.0000
vt 0.9749 0.3359 0.0000
vt 0.9532 0.3576 0.0000
vt 0.0386 0.3576 0.0000
vt 0.9749 0.9787 0.0000
vt 0.9532 0.9570 0.0000
vt 0.0169 0.9787 0.0000
vt 0.0386 0.9570 0.0000
vt 0.9003 0.4104 0.0000
vt 0.0914 0.4104 0.0000
vt 0.9003 0.9041 0.0000
vt 0.0914 0.9041 0.0000
vt 0.8763 0.4328 0.0000
vt 0.1154 0.4328 0.0000
vt 0.8763 0.8817 0.0000
vt 0.1154 0.8817 0.0000
vt 0.0221 0.2339 0.0000
vt 0.9777 0.2339 0.0000
vt 0.9777 0.2997 0.0000
vt 0.0221 0.2997 0.0000
vt 0.0221 0.2215 0.0000
vt 0.9777 0.2215 0.0000
vt 0.1593 0.4527 0.0000
vt 0.8341 0.4527 0.0000
vt 0.8341 0.8629 0.0000
vt 0.1593 0.8629 0.0000
# 26 texture coords

g m_VentCover
s 1
f 1/1/1 2/2/2 3/3/3 4/4/4 
f 2/2/2 5/5/5 6/6/6 3/3/3 
f 5/5/5 7/7/7 8/8/8 6/6/6 
f 7/7/7 1/1/1 4/4/4 8/8/8 
f 4/4/4 3/3/3 9/9/9 10/10/9 
f 3/3/3 6/6/6 11/11/9 9/9/9 
f 6/6/6 8/8/8 12/12/9 11/11/9 
f 8/8/8 4/4/4 10/10/9 12/12/9 
s 2
f 10/10/5 9/9/7 13/13/7 14/14/5 
f 9/9/7 11/11/1 15/15/1 13/13/7 
f 11/11/1 12/12/2 16/16/2 15/15/1 
f 12/12/2 10/10/5 14/14/5 16/16/2 
s 1
f 17/17/10 18/18/10 19/19/11 20/20/11 
f 21/21/12 22/22/12 18/18/10 17/17/10 
f 23/17/10 24/18/10 25/19/11 26/20/11 
f 27/21/12 28/22/12 24/18/10 23/17/10 
f 29/17/10 30/18/10 31/19/11 32/20/11 
f 33/21/12 34/22/12 30/18/10 29/17/10 
f 35/17/10 36/18/10 37/19/11 38/20/11 
f 39/21/12 40/22/12 36/18/10 35/17/10 
f 41/17/10 42/18/10 43/19/11 44/20/11 
f 45/21/12 46/22/12 42/18/10 41/17/10 
f 47/17/10 48/18/10 49/19/11 50/20/11 
f 51/21/12 52/22/12 48/18/10 47/17/10 
f 53/17/10 54/18/10 55/19/11 56/20/11 
f 57/21/12 58/22/12 54/18/10 53/17/10 
f 59/17/10 60/18/10 61/19/11 62/20/11 
f 63/21/12 64/22/12 60/18/10 59/17/10 
s 4
f 14/23/9 13/24/9 15/25/9 16/26/9 
# 29 polygons

